# xmcd
#
# Track frame offsets: 
#        180
#        11202
#        27061
#        39100
#        50354
#        63299
#        73227
#        83957
#        93076
#        107133
#        118736
#        130573
#        141967
#        155945
#
# Disc length: 2273 seconds
#
# Revision: 1
# Processed by: cddbd v1.5.2PL0 Copyright (c) Steve Scherf et al.
# Submitted via: ExactAudioCopyFreeDBPlugin 1.0
#
DISCID=ba08df0e
DTITLE=Various Artist - The Sweet Sounds of Muscle Shoals:  Rare Soul
DTITLE=from Quinvy-Broadway Sound Studio
DYEAR=1996
DGENRE=Soul
TTITLE0=Don Varner - Tear Stained Face
TTITLE1=Eddie Bradford - Push Mr. Pride Aside
TTITLE2=Don Varner - Mojo Mama
TTITLE3=Jimmy Braswell - Hand Shaking
TTITLE4=Eddie Bradford - Little Bit of Love
TTITLE5=Don Varner - When It's Over
TTITLE6=Eddie Bradford - You Made Your Bed
TTITLE7=Percy Sledge Jr. - Sugar Makes Everything Sweeter
TTITLE8=Don Varner - Meet Me in Church
TTITLE9=Jimmy Braswell - Home for the Summer
TTITLE10=Brenda Varner - Don't Give Up on Me
TTITLE11=Bill Brandon - I'll Be Your Baby Tonight
TTITLE12=Don Varner - Down in Texas
TTITLE13=Brenda Varner - Let Me Be Aa Woman
EXTD=
EXTT0=
EXTT1=
EXTT2=
EXTT3=
EXTT4=
EXTT5=
EXTT6=
EXTT7=
EXTT8=
EXTT9=
EXTT10=
EXTT11=
EXTT12=
EXTT13=
PLAYORDER=
